<svg width="24" height="24" viewBox="0 0 24 24" fill="none" xmlns="http://www.w3.org/2000/svg">
<g clip-path="url(#clip0_1459_37)">
<path d="M9.0994 9.04855C9.0994 7.70605 8.18628 7.70605 8.18628 7.70605H4.43628V10.5842H7.95378C8.56128 10.5842 9.0994 10.3892 9.0994 9.04855ZM8.18628 12.5736H4.43628V16.0198H8.01753C8.55565 16.0048 9.55128 15.8323 9.55128 14.3436C9.54565 12.5623 8.18628 12.5736 8.18628 12.5736ZM17.7994 10.5842C15.8063 10.5842 15.5288 12.5717 15.5288 12.5717H19.7663C19.7663 12.5717 19.7925 10.5842 17.7994 10.5842Z" fill="white"/>
<path d="M20.8594 0.405029H3.14065C2.41512 0.405029 1.7193 0.693246 1.20628 1.20628C0.693246 1.7193 0.405029 2.41512 0.405029 3.14065V20.8575C0.405029 21.5831 0.693246 22.2789 1.20628 22.7919C1.7193 23.3049 2.41512 23.5932 3.14065 23.5932H20.8575C21.5831 23.5932 22.2789 23.3049 22.7919 22.7919C23.3049 22.2789 23.5932 21.5831 23.5932 20.8575V3.14065C23.5932 2.41545 23.3052 1.71991 22.7926 1.20694C22.2799 0.693963 21.5846 0.405526 20.8594 0.405029ZM14.9738 6.17253H20.295V7.76253H14.9738V6.17253ZM12.2832 14.505C12.2832 18.4425 8.18628 18.3132 8.18628 18.3132H1.47378V5.41315H8.18628C10.2263 5.41315 11.8369 6.53815 11.8369 8.84815C11.8369 11.1582 9.86816 11.3025 9.86816 11.3025C12.4632 11.3025 12.2832 14.505 12.2832 14.505ZM22.2375 14.295H15.5625C15.5625 16.6913 17.8332 16.545 17.8332 16.545C19.9763 16.545 19.8957 15.1575 19.8957 15.1575H22.1625C22.1625 18.84 17.7488 18.5869 17.7488 18.5869C12.4519 18.5869 12.7932 13.6557 12.7932 13.6557C12.7932 13.6557 12.7932 8.70003 17.7488 8.70003C22.9707 8.69628 22.2394 14.295 22.2394 14.295H22.2375Z" fill="white"/>
</g>
<defs>
<clipPath id="clip0_1459_37">
<rect width="24" height="24" fill="white"/>
</clipPath>
</defs>
</svg>
