<svg width="24" height="24" viewBox="0 0 24 24" fill="none" xmlns="http://www.w3.org/2000/svg">
<g clip-path="url(#clip0_1467_41)">
<path d="M12 24C10.4241 24 8.86371 23.6896 7.4078 23.0866C5.95189 22.4835 4.62902 21.5996 3.51472 20.4853C1.26428 18.2348 0 15.1826 0 12C0 8.8174 1.26428 5.76516 3.51472 3.51472C5.76516 1.26428 8.8174 0 12 0C13.5759 0 15.1363 0.310389 16.5922 0.913446C18.0481 1.5165 19.371 2.40042 20.4853 3.51472C21.5996 4.62902 22.4835 5.95189 23.0866 7.4078C23.6896 8.86371 24 10.4241 24 12C24 15.1826 22.7357 18.2348 20.4853 20.4853C18.2348 22.7357 15.1826 24 12 24ZM12 6L6 12H9.6V16.8H14.4V12H18L12 6Z" fill="black"/>
</g>
<defs>
<clipPath id="clip0_1467_41">
<rect width="24" height="24" fill="white"/>
</clipPath>
</defs>
</svg>
