<svg width="198" height="118" viewBox="0 0 198 118" fill="none" xmlns="http://www.w3.org/2000/svg">
<path d="M8.77344 0.921875H21.707C23.7852 0.921875 25.7266 1.14062 27.5312 1.57812C29.3542 2.01562 30.931 2.67188 32.2617 3.54688C33.6107 4.42188 34.668 5.51562 35.4336 6.82812C36.1992 8.1224 36.582 9.63542 36.582 11.3672C36.582 13.1172 36.1992 14.6484 35.4336 15.9609C34.6862 17.2552 33.6836 18.3398 32.4258 19.2148C31.1862 20.0898 29.7643 20.7461 28.1602 21.1836C26.5742 21.6029 24.9427 21.8125 23.2656 21.8125H17.9062V38H8.77344V0.921875ZM17.9062 18.4492H20.8867C21.9258 18.4492 22.8281 18.2669 23.5938 17.9023C24.3594 17.5195 24.9974 17.0091 25.5078 16.3711C26.0182 15.7148 26.401 14.9674 26.6562 14.1289C26.9115 13.2904 27.0391 12.4062 27.0391 11.4766C27.0391 10.3646 26.8659 9.38021 26.5195 8.52344C26.1914 7.66667 25.7357 6.94661 25.1523 6.36328C24.5872 5.76172 23.9128 5.30599 23.1289 4.99609C22.3633 4.6862 21.5339 4.53125 20.6406 4.53125H17.9062V18.4492ZM61.9023 0.15625L79.293 38H69.9961L65.3477 27.8828H50.9375L46.0703 38H39.8906L57.9648 0.15625H61.9023ZM52.6602 24.4375H63.8164L58.3203 12.4609L52.6602 24.4375ZM115.961 0.921875V4.09375H103.137V38H94.0586V4.09375H81.207V0.921875H115.961ZM153.367 0.921875V4.09375H140.543V38H131.465V4.09375H118.613V0.921875H153.367ZM164.523 0.921875L176.719 17.6289L188.176 0.921875H194.328L179.836 21.9766V38H170.73V22.5234L155.008 0.921875H164.523ZM7.95312 99.0078C7.95312 101.542 8.33594 103.82 9.10156 105.844C9.86719 107.849 10.9154 109.553 12.2461 110.957C13.5951 112.342 15.181 113.409 17.0039 114.156C18.8268 114.885 20.8047 115.25 22.9375 115.25C24.2135 115.25 25.444 115.004 26.6289 114.512C27.8138 114.02 28.9076 113.382 29.9102 112.598C30.931 111.796 31.8424 110.902 32.6445 109.918C33.4466 108.915 34.1029 107.904 34.6133 106.883L37.1836 108.523C36.4362 109.745 35.5521 110.921 34.5312 112.051C33.5104 113.163 32.3255 114.156 30.9766 115.031C29.6458 115.888 28.1328 116.572 26.4375 117.082C24.7604 117.592 22.8828 117.848 20.8047 117.848C17.7969 117.848 15.0625 117.346 12.6016 116.344C10.1589 115.341 8.0625 113.983 6.3125 112.27C4.5625 110.556 3.20443 108.56 2.23828 106.281C1.29036 103.984 0.816406 101.56 0.816406 99.0078C0.816406 97.3125 1.03516 95.6628 1.47266 94.0586C1.91016 92.4362 2.53906 90.9232 3.35938 89.5195C4.19792 88.0977 5.20964 86.8034 6.39453 85.6367C7.59766 84.4518 8.94661 83.4401 10.4414 82.6016C11.9544 81.7448 13.6042 81.0885 15.3906 80.6328C17.1771 80.1589 19.082 79.9219 21.1055 79.9219C23.0378 79.9219 24.8151 80.1862 26.4375 80.7148C28.0781 81.2253 29.5638 81.9089 30.8945 82.7656C32.2435 83.6224 33.4375 84.6159 34.4766 85.7461C35.5339 86.8581 36.4362 88.0247 37.1836 89.2461L34.5312 90.9961C33.0182 88.0612 31.3229 85.9193 29.4453 84.5703C27.5677 83.2031 25.4076 82.5195 22.9648 82.5195C20.8685 82.5195 18.9089 82.9023 17.0859 83.668C15.263 84.4336 13.668 85.5273 12.3008 86.9492C10.9518 88.3711 9.88542 90.1029 9.10156 92.1445C8.33594 94.168 7.95312 96.4557 7.95312 99.0078ZM51.7852 99.6094V117H45.6875V80.7422H51.7852V97.2578H69.9961V80.7422H76.0938V117H69.9961V99.6094H51.7852ZM100.184 79.9219L117.246 117H111.039L105.516 104.914H89.957L84.2422 117H81.1797L98.6523 79.9219H100.184ZM91.0234 102.562H104.395L97.8047 88.207L91.0234 102.562ZM122.305 80.7422H125.723L149.484 107.266H149.758V80.7422H152.438V117.848H151.016L125.285 88.3711H125.066V117H122.305V80.7422ZM182.898 82.5195C180.711 82.5195 178.688 82.9115 176.828 83.6953C174.987 84.4609 173.392 85.5729 172.043 87.0312C170.712 88.4714 169.673 90.2214 168.926 92.2812C168.178 94.3229 167.805 96.6107 167.805 99.1445C167.805 101.697 168.206 104.003 169.008 106.062C169.828 108.104 170.94 109.845 172.344 111.285C173.766 112.725 175.434 113.837 177.348 114.621C179.262 115.387 181.312 115.77 183.5 115.77C185.086 115.77 186.517 115.56 187.793 115.141C189.069 114.703 190.217 114.083 191.238 113.281V100.566H184.375V98.4062H197.336V114.348C196.279 114.913 195.212 115.414 194.137 115.852C193.061 116.289 191.895 116.654 190.637 116.945C189.397 117.237 188.03 117.456 186.535 117.602C185.04 117.766 183.345 117.848 181.449 117.848C179.444 117.848 177.539 117.62 175.734 117.164C173.93 116.727 172.253 116.098 170.703 115.277C169.172 114.457 167.786 113.482 166.547 112.352C165.307 111.203 164.25 109.936 163.375 108.551C162.518 107.165 161.853 105.68 161.379 104.094C160.905 102.508 160.668 100.858 160.668 99.1445C160.668 97.4492 160.887 95.7995 161.324 94.1953C161.78 92.5729 162.427 91.0508 163.266 89.6289C164.104 88.1888 165.125 86.8763 166.328 85.6914C167.531 84.5065 168.889 83.4857 170.402 82.6289C171.915 81.7721 173.565 81.1068 175.352 80.6328C177.138 80.1589 179.034 79.9219 181.039 79.9219C182.953 79.9219 184.721 80.1862 186.344 80.7148C187.984 81.2253 189.47 81.9089 190.801 82.7656C192.15 83.6224 193.344 84.6159 194.383 85.7461C195.422 86.8581 196.315 88.0247 197.062 89.2461L194.438 90.9961C192.906 88.0612 191.202 85.9193 189.324 84.5703C187.465 83.2031 185.323 82.5195 182.898 82.5195Z" fill="white"/>
</svg>
