<svg width="198" height="119" viewBox="0 0 198 119" fill="none" xmlns="http://www.w3.org/2000/svg">
<path d="M8.77344 1.42188H21.707C23.7852 1.42188 25.7266 1.64062 27.5312 2.07812C29.3542 2.51562 30.931 3.17188 32.2617 4.04688C33.6107 4.92188 34.668 6.01562 35.4336 7.32812C36.1992 8.6224 36.582 10.1354 36.582 11.8672C36.582 13.6172 36.1992 15.1484 35.4336 16.4609C34.6862 17.7552 33.6836 18.8398 32.4258 19.7148C31.1862 20.5898 29.7643 21.2461 28.1602 21.6836C26.5742 22.1029 24.9427 22.3125 23.2656 22.3125H17.9062V38.5H8.77344V1.42188ZM17.9062 18.9492H20.8867C21.9258 18.9492 22.8281 18.7669 23.5938 18.4023C24.3594 18.0195 24.9974 17.5091 25.5078 16.8711C26.0182 16.2148 26.401 15.4674 26.6562 14.6289C26.9115 13.7904 27.0391 12.9062 27.0391 11.9766C27.0391 10.8646 26.8659 9.88021 26.5195 9.02344C26.1914 8.16667 25.7357 7.44661 25.1523 6.86328C24.5872 6.26172 23.9128 5.80599 23.1289 5.49609C22.3633 5.1862 21.5339 5.03125 20.6406 5.03125H17.9062V18.9492ZM61.9023 0.65625L79.293 38.5H69.9961L65.3477 28.3828H50.9375L46.0703 38.5H39.8906L57.9648 0.65625H61.9023ZM52.6602 24.9375H63.8164L58.3203 12.9609L52.6602 24.9375ZM115.961 1.42188V4.59375H103.137V38.5H94.0586V4.59375H81.207V1.42188H115.961ZM153.367 1.42188V4.59375H140.543V38.5H131.465V4.59375H118.613V1.42188H153.367ZM164.523 1.42188L176.719 18.1289L188.176 1.42188H194.328L179.836 22.4766V38.5H170.73V23.0234L155.008 1.42188H164.523ZM7.95312 99.5078C7.95312 102.042 8.33594 104.32 9.10156 106.344C9.86719 108.349 10.9154 110.053 12.2461 111.457C13.5951 112.842 15.181 113.909 17.0039 114.656C18.8268 115.385 20.8047 115.75 22.9375 115.75C24.2135 115.75 25.444 115.504 26.6289 115.012C27.8138 114.52 28.9076 113.882 29.9102 113.098C30.931 112.296 31.8424 111.402 32.6445 110.418C33.4466 109.415 34.1029 108.404 34.6133 107.383L37.1836 109.023C36.4362 110.245 35.5521 111.421 34.5312 112.551C33.5104 113.663 32.3255 114.656 30.9766 115.531C29.6458 116.388 28.1328 117.072 26.4375 117.582C24.7604 118.092 22.8828 118.348 20.8047 118.348C17.7969 118.348 15.0625 117.846 12.6016 116.844C10.1589 115.841 8.0625 114.483 6.3125 112.77C4.5625 111.056 3.20443 109.06 2.23828 106.781C1.29036 104.484 0.816406 102.06 0.816406 99.5078C0.816406 97.8125 1.03516 96.1628 1.47266 94.5586C1.91016 92.9362 2.53906 91.4232 3.35938 90.0195C4.19792 88.5977 5.20964 87.3034 6.39453 86.1367C7.59766 84.9518 8.94661 83.9401 10.4414 83.1016C11.9544 82.2448 13.6042 81.5885 15.3906 81.1328C17.1771 80.6589 19.082 80.4219 21.1055 80.4219C23.0378 80.4219 24.8151 80.6862 26.4375 81.2148C28.0781 81.7253 29.5638 82.4089 30.8945 83.2656C32.2435 84.1224 33.4375 85.1159 34.4766 86.2461C35.5339 87.3581 36.4362 88.5247 37.1836 89.7461L34.5312 91.4961C33.0182 88.5612 31.3229 86.4193 29.4453 85.0703C27.5677 83.7031 25.4076 83.0195 22.9648 83.0195C20.8685 83.0195 18.9089 83.4023 17.0859 84.168C15.263 84.9336 13.668 86.0273 12.3008 87.4492C10.9518 88.8711 9.88542 90.6029 9.10156 92.6445C8.33594 94.668 7.95312 96.9557 7.95312 99.5078ZM51.7852 100.109V117.5H45.6875V81.2422H51.7852V97.7578H69.9961V81.2422H76.0938V117.5H69.9961V100.109H51.7852ZM100.184 80.4219L117.246 117.5H111.039L105.516 105.414H89.957L84.2422 117.5H81.1797L98.6523 80.4219H100.184ZM91.0234 103.062H104.395L97.8047 88.707L91.0234 103.062ZM122.305 81.2422H125.723L149.484 107.766H149.758V81.2422H152.438V118.348H151.016L125.285 88.8711H125.066V117.5H122.305V81.2422ZM182.898 83.0195C180.711 83.0195 178.688 83.4115 176.828 84.1953C174.987 84.9609 173.392 86.0729 172.043 87.5312C170.712 88.9714 169.673 90.7214 168.926 92.7812C168.178 94.8229 167.805 97.1107 167.805 99.6445C167.805 102.197 168.206 104.503 169.008 106.562C169.828 108.604 170.94 110.345 172.344 111.785C173.766 113.225 175.434 114.337 177.348 115.121C179.262 115.887 181.312 116.27 183.5 116.27C185.086 116.27 186.517 116.06 187.793 115.641C189.069 115.203 190.217 114.583 191.238 113.781V101.066H184.375V98.9062H197.336V114.848C196.279 115.413 195.212 115.914 194.137 116.352C193.061 116.789 191.895 117.154 190.637 117.445C189.397 117.737 188.03 117.956 186.535 118.102C185.04 118.266 183.345 118.348 181.449 118.348C179.444 118.348 177.539 118.12 175.734 117.664C173.93 117.227 172.253 116.598 170.703 115.777C169.172 114.957 167.786 113.982 166.547 112.852C165.307 111.703 164.25 110.436 163.375 109.051C162.518 107.665 161.853 106.18 161.379 104.594C160.905 103.008 160.668 101.358 160.668 99.6445C160.668 97.9492 160.887 96.2995 161.324 94.6953C161.78 93.0729 162.427 91.5508 163.266 90.1289C164.104 88.6888 165.125 87.3763 166.328 86.1914C167.531 85.0065 168.889 83.9857 170.402 83.1289C171.915 82.2721 173.565 81.6068 175.352 81.1328C177.138 80.6589 179.034 80.4219 181.039 80.4219C182.953 80.4219 184.721 80.6862 186.344 81.2148C187.984 81.7253 189.47 82.4089 190.801 83.2656C192.15 84.1224 193.344 85.1159 194.383 86.2461C195.422 87.3581 196.315 88.5247 197.062 89.7461L194.438 91.4961C192.906 88.5612 191.202 86.4193 189.324 85.0703C187.465 83.7031 185.323 83.0195 182.898 83.0195Z" fill="black"/>
</svg>
