<svg width="200" height="20" viewBox="0 0 200 20" fill="none" xmlns="http://www.w3.org/2000/svg">
<path d="M0.660156 0.460938H7.12695C8.16602 0.460938 9.13672 0.570312 10.0391 0.789062C10.9505 1.00781 11.7389 1.33594 12.4043 1.77344C13.0788 2.21094 13.6074 2.75781 13.9902 3.41406C14.373 4.0612 14.5645 4.81771 14.5645 5.68359C14.5645 6.55859 14.373 7.32422 13.9902 7.98047C13.6165 8.6276 13.1152 9.16992 12.4863 9.60742C11.8665 10.0449 11.1556 10.373 10.3535 10.5918C9.56055 10.8014 8.74479 10.9062 7.90625 10.9062H5.22656V19H0.660156V0.460938ZM5.22656 9.22461H6.7168C7.23633 9.22461 7.6875 9.13346 8.07031 8.95117C8.45312 8.75977 8.77214 8.50456 9.02734 8.18555C9.28255 7.85742 9.47396 7.48372 9.60156 7.06445C9.72917 6.64518 9.79297 6.20312 9.79297 5.73828C9.79297 5.18229 9.70638 4.6901 9.5332 4.26172C9.36914 3.83333 9.14128 3.47331 8.84961 3.18164C8.56706 2.88086 8.22982 2.65299 7.83789 2.49805C7.45508 2.3431 7.04036 2.26562 6.59375 2.26562H5.22656V9.22461ZM27.2246 0.078125L35.9199 19H31.2715L28.9473 13.9414H21.7422L19.3086 19H16.2188L25.2559 0.078125H27.2246ZM22.6035 12.2188H28.1816L25.4336 6.23047L22.6035 12.2188ZM54.2539 0.460938V2.04688H47.8418V19H43.3027V2.04688H36.877V0.460938H54.2539ZM72.957 0.460938V2.04688H66.5449V19H62.0059V2.04688H55.5801V0.460938H72.957ZM78.5352 0.460938L84.6328 8.81445L90.3613 0.460938H93.4375L86.1914 10.9883V19H81.6387V11.2617L73.7773 0.460938H78.5352ZM104.785 10.0039C104.785 11.2708 104.977 12.4102 105.359 13.4219C105.742 14.4245 106.266 15.2767 106.932 15.9785C107.606 16.6712 108.399 17.2044 109.311 17.5781C110.222 17.9427 111.211 18.125 112.277 18.125C112.915 18.125 113.531 18.002 114.123 17.7559C114.715 17.5098 115.262 17.1908 115.764 16.7988C116.274 16.3978 116.73 15.9512 117.131 15.459C117.532 14.9577 117.86 14.4518 118.115 13.9414L119.4 14.7617C119.027 15.3724 118.585 15.9603 118.074 16.5254C117.564 17.0814 116.971 17.5781 116.297 18.0156C115.632 18.444 114.875 18.7858 114.027 19.041C113.189 19.2962 112.25 19.4238 111.211 19.4238C109.707 19.4238 108.34 19.1732 107.109 18.6719C105.888 18.1706 104.84 17.4915 103.965 16.6348C103.09 15.778 102.411 14.7799 101.928 13.6406C101.454 12.4922 101.217 11.2799 101.217 10.0039C101.217 9.15625 101.326 8.33138 101.545 7.5293C101.764 6.7181 102.078 5.96159 102.488 5.25977C102.908 4.54883 103.413 3.90169 104.006 3.31836C104.607 2.72591 105.282 2.22005 106.029 1.80078C106.786 1.3724 107.611 1.04427 108.504 0.816406C109.397 0.579427 110.35 0.460938 111.361 0.460938C112.327 0.460938 113.216 0.593099 114.027 0.857422C114.848 1.11263 115.59 1.45443 116.256 1.88281C116.93 2.3112 117.527 2.80794 118.047 3.37305C118.576 3.92904 119.027 4.51237 119.4 5.12305L118.074 5.99805C117.318 4.5306 116.47 3.45964 115.531 2.78516C114.592 2.10156 113.512 1.75977 112.291 1.75977C111.243 1.75977 110.263 1.95117 109.352 2.33398C108.44 2.7168 107.643 3.26367 106.959 3.97461C106.285 4.68555 105.751 5.55143 105.359 6.57227C104.977 7.58398 104.785 8.72786 104.785 10.0039ZM126.701 10.3047V19H123.652V0.871094H126.701V9.12891H135.807V0.871094H138.855V19H135.807V10.3047H126.701ZM150.9 0.460938L159.432 19H156.328L153.566 12.957H145.787L142.93 19H141.398L150.135 0.460938H150.9ZM146.32 11.7812H153.006L149.711 4.60352L146.32 11.7812ZM161.961 0.871094H163.67L175.551 14.1328H175.688V0.871094H177.027V19.4238H176.316L163.451 4.68555H163.342V19H161.961V0.871094ZM192.258 1.75977C191.164 1.75977 190.152 1.95573 189.223 2.34766C188.302 2.73047 187.505 3.28646 186.83 4.01562C186.165 4.73568 185.645 5.61068 185.271 6.64062C184.898 7.66146 184.711 8.80534 184.711 10.0723C184.711 11.3483 184.911 12.5013 185.312 13.5312C185.723 14.5521 186.279 15.4225 186.98 16.1426C187.691 16.8626 188.525 17.4186 189.482 17.8105C190.439 18.1934 191.465 18.3848 192.559 18.3848C193.352 18.3848 194.067 18.2799 194.705 18.0703C195.343 17.8516 195.917 17.5417 196.428 17.1406V10.7832H192.996V9.70312H199.477V17.6738C198.948 17.9564 198.415 18.207 197.877 18.4258C197.339 18.6445 196.756 18.8268 196.127 18.9727C195.507 19.1185 194.824 19.2279 194.076 19.3008C193.329 19.3828 192.481 19.4238 191.533 19.4238C190.531 19.4238 189.578 19.3099 188.676 19.082C187.773 18.8633 186.935 18.5488 186.16 18.1387C185.395 17.7285 184.702 17.2409 184.082 16.6758C183.462 16.1016 182.934 15.4681 182.496 14.7754C182.068 14.0827 181.735 13.3398 181.498 12.5469C181.261 11.7539 181.143 10.929 181.143 10.0723C181.143 9.22461 181.252 8.39974 181.471 7.59766C181.699 6.78646 182.022 6.02539 182.441 5.31445C182.861 4.5944 183.371 3.93815 183.973 3.3457C184.574 2.75326 185.253 2.24284 186.01 1.81445C186.766 1.38607 187.591 1.05339 188.484 0.816406C189.378 0.579427 190.326 0.460938 191.328 0.460938C192.285 0.460938 193.169 0.593099 193.98 0.857422C194.801 1.11263 195.544 1.45443 196.209 1.88281C196.883 2.3112 197.48 2.80794 198 3.37305C198.52 3.92904 198.966 4.51237 199.34 5.12305L198.027 5.99805C197.262 4.5306 196.41 3.45964 195.471 2.78516C194.541 2.10156 193.47 1.75977 192.258 1.75977Z" fill="white"/>
</svg>
